<svg width="32" height="32" fill="none" xmlns="http://www.w3.org/2000/svg"><g clip-path="url(#clip0_1002_52)" fill="#60340B"><path d="M14 .998h3.997c.188.024.376.049.564.07 2.817.315 5.352 1.325 7.557 3.115 2.775 2.258 4.504 5.15 5.15 8.675.1.543.158 1.094.236 1.642v1.15c-.258.65-.746.857-1.429.856-9.384-.013-18.768-.016-28.151-.009H1.62C.964 16.474.5 16.01.506 15.353c0-.474.022-.948.07-1.42.306-2.805 1.314-5.331 3.094-7.527 2.258-2.787 5.157-4.523 8.693-5.172.54-.1 1.089-.158 1.637-.236zm-2.43 8.306c0-.202.012-.406 0-.604-.041-.592-.482-1.028-1.048-1.049-.598-.022-1.083.363-1.137.97a7.19 7.19 0 000 1.355 1.066 1.066 0 001.137.975c.587-.032 1.021-.471 1.056-1.076.005-.189-.008-.38-.008-.571zm8.856 0c0 .21-.016.424 0 .633a1.097 1.097 0 001.083 1.016 1.056 1.056 0 001.099-.955 7.24 7.24 0 000-1.38c-.058-.606-.546-.99-1.144-.967-.569.023-1.005.46-1.045 1.056-.002.197.01.4.01.6l-.003-.003zm-3.338.015c0-.244.018-.487 0-.724a1.076 1.076 0 00-1.073-.949c-.564-.004-1.062.407-1.098.952-.03.462-.03.925 0 1.387.033.548.529.969 1.087.968a1.086 1.086 0 001.087-.97c.017-.217 0-.44 0-.663h-.003zM31.5 24.005v3.025c-.095.389-.163.788-.291 1.165-.813 2.352-2.857 3.797-5.373 3.799H6.158c-.151 0-.303 0-.454-.011-2.483-.13-4.685-2.013-5.077-4.464C.465 26.503.521 25.45.5 24.413c-.016-.843.419-1.269 1.26-1.269 5.055 0 10.11-.001 15.167-.004a1.6 1.6 0 011.008.34c1.061.804 2.128 1.6 3.194 2.398.135.101.272.2.406.3 1.212-.908 2.409-1.8 3.599-2.7a1.582 1.582 0 011.009-.338c1.322.009 2.644.023 3.966-.005.683-.012 1.152.223 1.39.87zm0-3.935c-.25.657-.738.862-1.422.861-9.425-.012-18.85-.015-28.275-.008-.702 0-1.118-.279-1.266-.84a1.09 1.09 0 01.915-1.35 3.5 3.5 0 01.424-.018c9.416 0 18.831-.003 28.246-.008.68 0 1.147.228 1.381.878l-.003.485z"/></g><defs><clipPath id="clip0_1002_52"><path fill="#fff" transform="translate(.5 .998)" d="M0 0h31v31H0z"/></clipPath></defs></svg>