<svg width="37" height="56" fill="none" xmlns="http://www.w3.org/2000/svg"><g clip-path="url(#clip0_1050_240)"><path d="M31.92.02c.701.262 1.458.43 2.092.804 1.678.99 2.581 2.498 2.69 4.45.008.16.014.321.014.483 0 14.501-.002 29 .003 43.502 0 2.21-.908 3.901-2.822 5.037-.922.547-1.94.725-3.006.725-8.114-.007-16.229-.002-24.342-.009-.448 0-.902-.031-1.344-.107-2.404-.41-4.333-2.581-4.459-5.003-.013-.25-.02-.501-.02-.752C.723 34.722.729 20.293.719 5.863.717 3.403 1.76 1.6 3.996.517 4.473.287 5.01.182 5.52.02h26.4zm-.792 38.458V5.54H6.296v32.94h24.832zm-12.404 11.08v-.04c.506 0 1.011.022 1.515-.004 1.616-.081 2.633-1.156 2.623-2.747-.009-1.508-1.146-2.686-2.682-2.732a41.94 41.94 0 00-2.973.006c-1.286.053-2.52 1.267-2.619 2.516-.11 1.396.798 2.627 2.2 2.878.631.114 1.29.085 1.936.122z" fill="#FAE2CB"/></g><defs><clipPath id="clip0_1050_240"><path fill="#fff" transform="translate(.719 .02)" d="M0 0h36v55H0z"/></clipPath></defs></svg>