<svg width="32" height="32" fill="none" xmlns="http://www.w3.org/2000/svg"><g clip-path="url(#clip0_1002_211)" fill="#60340B"><path d="M27.16 22.42c1.18-.032 2.183.328 3.024 1.116.764.714 1.18 1.609 1.309 2.65.042.345-.109.552-.41.663.255 2.163-.649 3.674-2.422 4.104-1.407.345-3.41-.33-3.96-2.618-.017 0-.043-.006-.052 0-.498.56-.857.496-1.125-.204-.065-.172-.115-.345-.156-.469-.318.035-.621.096-.926.097-2.625.007-5.251.007-7.877 0-.254 0-.376.025-.424.344-.237 1.58-1.633 2.74-3.223 2.725a3.205 3.205 0 01-2.095-.795 3.3 3.3 0 01-1.087-1.985c-.013-.086-.032-.167-.046-.238-.254-.05-.5-.07-.728-.147-.957-.322-1.495-1.258-1.413-2.406a6.825 6.825 0 01.571-2.268c.315-.714.679-1.405 1.04-2.1a.397.397 0 01.274-.196c2.498-.01 4.997-.007 7.495-.005.02.004.04.01.06.02-.164 1.545.067 2.413.795 2.904.029-.44.059-.861.085-1.287l.305-5.216c.03-.517-.118-.698-.63-.754-.768-.086-1.536-.167-2.303-.259a1.489 1.489 0 01-1.07-.622 1.542 1.542 0 01-.254-1.226c.472-2.335.95-4.67 1.436-7.002.215-1.034 1.073-1.648 2.072-1.527.901.109 1.575.93 1.597 1.919.01.153.07.299.17.415.884 1 2.048 1.529 3.258 1.982a4.568 4.568 0 001.799.306c.824-.03 1.65-.01 2.477-.006 1.034.006 1.64.619 1.645 1.662 0 .322.008.645-.005.967a1.524 1.524 0 01-.438 1.026 1.48 1.48 0 01-1.012.44c-.339.01-.672 0-1.053 0 .242 1.822.628 3.506 2.165 4.667.985.746 1.369 1.767 1.177 3.005-.017.094-.028.19-.045.318zm-6.378-9.553a8.819 8.819 0 01-4.49-1.872c-.125.546-.246 1.043-.353 1.543-.084.414.01.59.404.742.722.277 1.444.552 2.167.825.913.344 1.265.867 1.168 1.845-.209 2.128-.441 4.253-.663 6.377-.063.604-.122 1.207-.183 1.825h1.95V12.867zm7.125 17.11c1.63.008 2.73-1.696 2.066-3.194a.516.516 0 00-.449-.345c-1.256-.129-2.44.087-3.54.736a.57.57 0 00-.312.55 2.31 2.31 0 00.666 1.588c.418.421.98.66 1.569.666zM8.762 27.784c-.011 1.104 1.087 2.068 2.284 2.016 1.116-.046 2.158-1.051 2.074-2.016H8.762z"/><path d="M5.588 7.264h3.428c1.018 0 1.649.64 1.65 1.666v5.45c0 1.01-.635 1.657-1.625 1.658H2.119c-.97 0-1.611-.65-1.616-1.632-.004-1.839-.004-3.678 0-5.516 0-.965.645-1.621 1.593-1.625 1.163-.006 2.327-.001 3.492-.001zm9.63 12.388h-1.472c-2.17 0-4.339 0-6.508.005a.533.533 0 01-.483-.227 3.132 3.132 0 01-.659-1.78c-.02-.443.164-.646.594-.646h7.937c.362 0 .577.161.586.49.019.704.005 1.411.005 2.158zm-.993-17.047c.005-.686.277-1.34.758-1.822A2.524 2.524 0 0116.785.04a2.51 2.51 0 011.795.77 2.622 2.622 0 01.73 1.835 2.606 2.606 0 01-.757 1.806 2.524 2.524 0 01-1.788.746 2.51 2.51 0 01-1.798-.762 2.59 2.59 0 01-.741-1.831z"/></g><defs><clipPath id="clip0_1002_211"><path fill="#fff" transform="translate(.5 .037)" d="M0 0h31v31H0z"/></clipPath></defs></svg>