<svg width="28" height="32" fill="none" xmlns="http://www.w3.org/2000/svg"><g clip-path="url(#clip0_1002_79)" fill="#60340B"><path d="M14.925.998c.658.1 1.33.146 1.973.303 5.696 1.406 9.215 4.975 10.577 10.655.095.434.16.873.198 1.315.046.43.056.865.085 1.37a3.615 3.615 0 00-.413-.261c-.405-.18-.81-.364-1.226-.511-.179-.063-.255-.128-.273-.323a11.561 11.561 0 00-2.112-5.72 11.713 11.713 0 00-5.48-4.24 11.578 11.578 0 00-5.365-.707 11.598 11.598 0 00-6.27 2.588 11.632 11.632 0 00-3.94 6c-.194.682-.26 1.405-.395 2.107-.017.092-.076.218-.152.25-.569.245-1.147.47-1.774.723.076-.725.1-1.49.245-2.233.926-4.767 3.621-8.168 8.044-10.193a12.487 12.487 0 014.304-1.074 2.4 2.4 0 00.266-.051l1.708.002z"/><path d="M16.64 28.355c1.043 0 2.077.04 3.107-.01 1.125-.054 2.1-.87 2.344-1.82-.456-.021-.94.03-1.385-.076-1.254-.303-2.055-1.323-2.068-2.618a318.544 318.544 0 010-7.387c.033-2.174 2.283-3.412 4.151-2.31.87.513 1.294 1.325 1.301 2.32.014 3.11.03 6.219-.006 9.328-.028 2.395-2.01 4.34-4.413 4.399-.932.023-1.863.01-2.794 0-.18 0-.262.058-.337.218-.554 1.189-1.795 1.808-3.053 1.536-1.214-.262-2.1-1.34-2.145-2.606-.042-1.241.843-2.379 2.101-2.7 1.19-.303 2.511.315 3.058 1.428l.14.299zm-7.123-8.192c0 1.191.006 2.382 0 3.572-.008 1.237-.735 2.293-1.805 2.643-1.838.599-3.62-.612-3.653-2.539a237.65 237.65 0 010-7.415c.038-2.16 2.275-3.386 4.138-2.297.904.531 1.309 1.373 1.317 2.404.01 1.212.003 2.422.003 3.632zM2.26 15.72v8.84c-.722-.242-1.268-.699-1.567-1.389a3.41 3.41 0 01-.273-1.224c-.035-1.209-.019-2.42-.01-3.63.005-1.231.761-2.293 1.85-2.596zm23.634 8.825v-8.84a2.605 2.605 0 011.362 1.018c.323.457.494 1.004.487 1.563 0 1.23.01 2.46 0 3.69-.012 1.216-.77 2.257-1.85 2.57z"/></g><defs><clipPath id="clip0_1002_79"><path fill="#fff" transform="translate(.365 .998)" d="M0 0h27.395v31H0z"/></clipPath></defs></svg>