<svg width="30" height="34" fill="none" xmlns="http://www.w3.org/2000/svg"><g clip-path="url(#clip0_1050_262)" fill="#60340B"><path d="M15.599.322c.29.063.585.111.871.19 2.087.573 3.436 1.898 4.207 3.862-2.514.474-4.38 1.786-5.679 3.925-1.294-2.138-3.16-3.452-5.667-3.925.557-1.524 1.522-2.693 2.999-3.396.645-.307 1.377-.442 2.07-.656h1.199zm-6.865 33c-.152-.101-.325-.184-.454-.308-.373-.362-.383-.918-.01-1.308.39-.409.8-.804 1.225-1.18.078-.07.285-.06.407-.017 1.29.448 2.616.725 3.983.832 2.123.165 4.18-.125 6.174-.828.265-.094.419-.055.597.136.259.28.545.534.82.8.77.744.702 1.345-.214 1.874H8.734zm18.526-33c.064.038.125.079.19.114.578.307.747 1.006.296 1.474-.906.94-1.849 1.85-2.783 2.765-.052.05-.177.069-.257.053a73.087 73.087 0 01-1.746-.377c-.087-.02-.165-.076-.247-.116.044-.08.071-.175.134-.237 1.13-1.12 2.262-2.238 3.402-3.349.135-.132.318-.22.479-.327h.533zM2.4 19.733h15.763c.577 1.248 1.548 1.978 3.002 1.909 1.29-.061 2.15-.77 2.654-1.907h3.762c-.805 4.078-5.02 9.399-12.004 9.702-7.025.305-12.077-4.72-13.177-9.704z"/><path d="M27.963 11.988c-.693 0-1.39-.006-2.085.003-.476.006-.96-.015-1.426.061-1.42.231-2.438 1.405-2.452 2.804-.014 1.288.003 2.577-.007 3.865a.987.987 0 01-1.439.894c-.383-.188-.557-.505-.557-.916v-3.64c-.002-1.842-1.27-3.067-3.173-3.07h-.835c.08-2.066.93-3.712 2.698-4.822 2.086-1.309 4.266-1.338 6.416-.131 2.013 1.13 2.949 3.283 2.86 4.953z"/><path d="M17.998 17.789H1.251c-.891 0-1.248-.345-1.246-1.21.001-.333-.023-.671.025-.998.145-.992.977-1.657 2.05-1.658 3.188-.004 6.375-.002 9.562-.002h5.198c.762 0 1.156.376 1.157 1.103.002.91 0 1.821 0 2.764h.001zm-3.982-5.814H2.001c.053-1.889.795-3.45 2.353-4.576 1.99-1.439 4.172-1.644 6.387-.554 2.12 1.043 3.144 2.813 3.275 5.13zm9.982 5.812c0-1.018-.015-1.994.006-2.97.01-.495.443-.884.964-.89a87.191 87.191 0 013.131.004c1.003.024 1.83.825 1.886 1.794.022.375.018.752.004 1.127-.02.504-.412.924-.925.929-1.675.016-3.35.006-5.066.006z"/></g><defs><clipPath id="clip0_1050_262"><path fill="#fff" transform="translate(0 .322)" d="M0 0h30v33H0z"/></clipPath></defs></svg>