<svg width="27" height="16" fill="none" xmlns="http://www.w3.org/2000/svg"><path d="M0 8.994h2.055l1.142-5.68H1.142L0 8.994zm1.255-6.357h2.063l.34-1.7H1.594l-.34 1.7zm1.6 7.955h2.054l1.256-6.136h1.541l.227-1.142H6.422l.057-.256c.085-.484.257-1.028 1.027-1.028.457 0 .885.029 1.313.228l.229-1.198A4.512 4.512 0 007.564.803c-1.656 0-2.797.97-3.226 2.511h-.713l-.228 1.142h.713l-1.256 6.136z" fill="#fff"/><path d="M9.361 9.108c2.426 0 4.11-2.198 4.11-3.996 0-1.341-1.227-1.912-2.425-1.912-2.656 0-4.11 2.37-4.11 3.996 0 1.341 1.255 1.912 2.425 1.912zm6.508 0c2.426 0 4.11-2.198 4.11-3.996 0-1.341-1.255-1.912-2.454-1.912-2.655 0-4.11 2.369-4.11 3.996 0 1.341 1.284 1.912 2.454 1.912m7.45-.114h2.026L27 .918h-2.055l-.485 2.397-.857-.085c-1.997 0-3.824 2.568-3.824 4.395 0 .742.484 1.484 1.313 1.484 1.17 0 1.998-.57 2.34-1.141h.114l-.227 1.026zm-6.337 4.253a7.933 7.933 0 01-5.708 1.798c-2.712-.171-4.653-2.255-4.995-4.453h.114c.628 1.372 2.14 2.655 3.996 2.854 1.883.229 4.139-.627 5.366-1.798l-1.37-1.056h4.138l-.914 4.396-.6-1.713-.027-.028z" fill="#fff"/></svg>