<svg width="28" height="15" fill="none" xmlns="http://www.w3.org/2000/svg"><g clip-path="url(#clip0_1050_278)" fill="#60340B"><path d="M.5 8.879h2.055l1.142-5.68H1.642L.5 8.88zm1.255-6.357h2.063l.34-1.7H2.094l-.34 1.7zm1.6 7.955h2.054l1.256-6.136h1.541l.227-1.142H6.922l.057-.257c.085-.484.257-1.027 1.027-1.027.457 0 .885.028 1.313.228L9.548.945A4.513 4.513 0 008.063.688c-1.655 0-2.796.97-3.225 2.511h-.713l-.228 1.142h.713l-1.256 6.136z"/><path d="M9.862 8.993c2.426 0 4.11-2.198 4.11-3.996 0-1.341-1.228-1.912-2.426-1.912-2.655 0-4.11 2.37-4.11 3.996 0 1.341 1.256 1.912 2.426 1.912zm6.508 0c2.426 0 4.11-2.198 4.11-3.996 0-1.341-1.256-1.912-2.455-1.912-2.654 0-4.11 2.369-4.11 3.996 0 1.341 1.285 1.912 2.455 1.912zm7.449-.114h2.026L27.5.803h-2.055L24.96 3.2l-.856-.085c-1.998 0-3.825 2.568-3.825 4.395 0 .742.484 1.484 1.313 1.484 1.17 0 1.998-.57 2.34-1.142h.114l-.227 1.027zm-6.337 4.253a7.934 7.934 0 01-5.708 1.798c-2.712-.172-4.652-2.255-4.995-4.453h.114c.628 1.371 2.141 2.655 3.996 2.854 1.883.228 4.139-.628 5.366-1.798l-1.37-1.056h4.138l-.914 4.396-.6-1.713-.027-.028z"/></g><defs><clipPath id="clip0_1050_278"><path fill="#fff" transform="translate(.5 .688)" d="M0 0h27v14.269H0z"/></clipPath></defs></svg>