<svg width="51" height="60" fill="none" xmlns="http://www.w3.org/2000/svg"><path d="M23.635 9.253v-4.3c-1.388 0-2.75.017-4.11-.006-1.527-.025-2.53-1.51-1.956-2.891.343-.822.983-1.304 1.868-1.307 4.21-.018 8.42-.02 12.63 0 1.13.005 2.008.965 2.013 2.084a2.084 2.084 0 01-2.055 2.11c-1.366.025-2.73.006-4.145.006v4.314c5.238.501 9.896 2.44 14.04 5.938.449-.482.884-.962 1.334-1.428.576-.598 1.157-1.19 1.744-1.775.94-.935 2.214-.976 3.07-.105.854.868.805 2.146-.13 3.102-.87.89-1.754 1.764-2.63 2.65-.151.152-.294.314-.463.495 4.44 5.54 6.435 11.84 5.74 18.925-.552 5.613-2.804 10.49-6.578 14.648-7.271 8.01-19.346 10.303-29.028 5.587C4.964 52.425-.43 41.758.925 31.194 2.37 19.954 11.3 10.438 23.635 9.253zM4.911 34.416c-.008 11.603 9.287 21.068 20.726 21.101 11.574.035 20.925-9.37 20.95-21.07.024-11.565-9.333-21.061-20.757-21.068-11.557-.009-20.91 9.397-20.92 21.037z" fill="#FAE2CB"/><path d="M42.418 34.485c.004 9.232-7.477 16.809-16.609 16.82-9.26.01-16.737-7.539-16.732-16.894.005-9.243 7.478-16.81 16.607-16.818 9.268-.007 16.729 7.523 16.732 16.89l.002.002zm-18.753-5.308c0 1.711-.052 3.424.03 5.13.026.565.257 1.245.633 1.643 2.02 2.14 4.102 4.225 6.203 6.288.33.323.85.541 1.313.617.863.14 1.69-.4 2.056-1.194.377-.82.226-1.717-.461-2.417-1.727-1.759-3.478-3.493-5.191-5.264a1.53 1.53 0 01-.397-.951c-.03-2.917-.017-5.835-.017-8.75 0-1.506-.83-2.477-2.101-2.466-1.252.01-2.064.963-2.066 2.432-.002 1.644 0 3.289 0 4.933l-.002-.001z" fill="#FAE2CB"/></svg>