<svg width="24" height="25" fill="none" xmlns="http://www.w3.org/2000/svg"><path d="M19.505 5.489c-2.004-1.97-4.673-3.052-7.51-3.052-5.854 0-10.618 4.669-10.618 10.406 0 1.833.487 3.624 1.415 5.203l-1.506 5.391 5.63-1.448c1.55.83 3.295 1.265 5.074 1.265h.005c5.85 0 10.72-4.669 10.72-10.406 0-2.78-1.206-5.39-3.21-7.36zM11.995 21.5A8.947 8.947 0 017.5 20.296l-.32-.187-3.34.858.89-3.192-.21-.329a8.494 8.494 0 01-1.349-4.603c0-4.767 3.96-8.648 8.83-8.648 2.358 0 4.573.9 6.237 2.536 1.665 1.636 2.688 3.806 2.684 6.117 0 4.772-4.061 8.653-8.926 8.653zm4.84-6.478c-.262-.131-1.568-.76-1.812-.844-.244-.089-.421-.131-.598.131-.177.263-.684.844-.842 1.022-.153.174-.31.197-.574.066-1.56-.764-2.583-1.364-3.611-3.094-.273-.46.273-.426.78-1.42.086-.174.043-.324-.024-.455s-.598-1.41-.818-1.931c-.216-.506-.436-.436-.598-.445-.153-.01-.33-.01-.507-.01a.992.992 0 00-.708.324c-.244.262-.928.89-.928 2.17 0 1.28.952 2.517 1.081 2.69.134.174 1.87 2.8 4.534 3.929 1.684.712 2.344.773 3.186.651.512-.075 1.569-.628 1.789-1.237.22-.61.22-1.13.153-1.238-.062-.117-.24-.183-.502-.31z" fill="#34201F"/></svg>