<svg width="265" height="37" fill="none" xmlns="http://www.w3.org/2000/svg"><path d="M49.232 9.627v3.82h-8.785v4.994h6.728v3.672h-6.728v5.098h8.785v3.82h-13.78V9.627h13.78zm13.778 11.62c.196.372.382.759.558 1.16.186.402.363.813.529 1.234.166-.43.343-.847.529-1.248a26.4 26.4 0 01.573-1.19l5.494-10.813c.098-.186.196-.328.294-.426a1.02 1.02 0 01.353-.235 1.43 1.43 0 01.425-.088c.167-.01.358-.014.573-.014h3.79V31.03h-4.377V18.72c0-.597.03-1.244.088-1.94l-5.67 11.004a1.853 1.853 0 01-.72.779 1.931 1.931 0 01-1.014.264h-.676a2.01 2.01 0 01-1.028-.264 1.885 1.885 0 01-.705-.779l-5.7-11.018a18.27 18.27 0 01.117 1.954v12.31h-4.378V9.628h3.79c.216 0 .402.004.559.014.166.01.313.04.44.088a.88.88 0 01.338.235c.108.098.211.24.309.426l5.509 10.857zm21.623 2.63v7.154h-4.965V9.627h7.55c1.509 0 2.802.18 3.879.543 1.087.353 1.978.842 2.674 1.47a5.724 5.724 0 011.557 2.217c.333.853.5 1.773.5 2.762 0 1.068-.172 2.047-.515 2.938a5.896 5.896 0 01-1.572 2.292c-.705.637-1.601 1.136-2.688 1.499-1.077.352-2.355.528-3.834.528h-2.586zm0-3.747h2.586c1.292 0 2.223-.308 2.79-.925.569-.617.853-1.48.853-2.586 0-.49-.073-.935-.22-1.337a2.618 2.618 0 00-.676-1.028c-.294-.294-.671-.519-1.131-.676-.45-.156-.99-.235-1.616-.235h-2.586v6.787zm19.207 10.9h-4.995V9.628h4.995V31.03zm8.941-7.918v7.919h-4.966V9.627h6.964c1.547 0 2.864.161 3.951.484 1.097.314 1.988.754 2.674 1.322.695.569 1.2 1.24 1.513 2.013.314.774.47 1.616.47 2.527 0 .695-.093 1.351-.279 1.968a5.958 5.958 0 01-.837 1.72 6.32 6.32 0 01-1.352 1.395 7.055 7.055 0 01-1.836 1.014c.333.166.641.372.925.616.294.245.549.544.764.897l4.554 7.448h-4.495c-.832 0-1.43-.314-1.792-.94l-3.555-6.215c-.157-.274-.343-.47-.559-.587-.205-.118-.499-.177-.881-.177h-1.263zm0-3.422h1.998c.675 0 1.248-.084 1.718-.25.48-.176.872-.416 1.176-.72.303-.304.524-.656.661-1.058.137-.411.205-.852.205-1.322 0-.94-.308-1.675-.925-2.204-.607-.528-1.552-.793-2.835-.793h-1.998v6.347zm28.354-10.063v3.82h-8.785v4.994h6.728v3.672h-6.728v5.098h8.785v3.82h-13.78V9.627h13.78zm9.307 21.404V9.979h6.714c1.293 0 2.404.127 3.335.382.94.255 1.709.617 2.306 1.087a4.197 4.197 0 011.337 1.734c.294.675.441 1.44.441 2.291 0 .52-.084 1.019-.25 1.499-.157.48-.402.925-.735 1.337a4.998 4.998 0 01-1.234 1.101 6.729 6.729 0 01-1.733.794c1.538.303 2.698.857 3.482 1.66.783.803 1.175 1.86 1.175 3.173 0 .891-.167 1.704-.5 2.439a5.12 5.12 0 01-1.439 1.895c-.627.529-1.401.94-2.321 1.234-.911.284-1.954.426-3.13.426h-7.448zm2.85-9.593v7.33h4.554c.813 0 1.509-.093 2.086-.279.588-.186 1.068-.445 1.44-.778.382-.343.661-.745.838-1.205.176-.47.264-.984.264-1.543 0-1.087-.387-1.944-1.161-2.57-.764-.637-1.924-.955-3.481-.955h-4.54zm0-2.027h3.761c.803 0 1.499-.089 2.086-.265.588-.176 1.073-.421 1.455-.735.391-.313.68-.69.866-1.13.186-.451.279-.94.279-1.47 0-1.234-.372-2.14-1.116-2.717-.744-.578-1.9-.867-3.467-.867h-3.864v7.183zm24.356 9.357c.872 0 1.65-.146 2.336-.44a4.834 4.834 0 001.734-1.234 5.267 5.267 0 001.087-1.895c.254-.735.382-1.543.382-2.424V9.979h2.835v12.796c0 1.214-.196 2.34-.588 3.379a7.777 7.777 0 01-1.66 2.703c-.715.754-1.591 1.346-2.629 1.777-1.039.431-2.204.646-3.497.646-1.293 0-2.458-.215-3.496-.646-1.038-.43-1.92-1.023-2.644-1.777a7.963 7.963 0 01-1.675-2.703c-.382-1.039-.573-2.165-.573-3.38V9.98h2.835v12.78c0 .882.123 1.69.367 2.425a5.546 5.546 0 001.088 1.895 5.123 5.123 0 001.748 1.249c.695.294 1.479.44 2.35.44zm16.409-6.522v8.785h-2.836V9.979h5.95c1.332 0 2.483.137 3.452.411.97.265 1.768.652 2.395 1.161a4.629 4.629 0 011.41 1.851c.304.715.456 1.518.456 2.41a6.06 6.06 0 01-.353 2.085 5.533 5.533 0 01-1.028 1.748c-.441.51-.984.946-1.631 1.308a7.95 7.95 0 01-2.174.823 3 3 0 01.94.896l6.141 8.359h-2.527c-.519 0-.901-.201-1.146-.603l-5.465-7.521c-.166-.235-.347-.402-.543-.5-.196-.107-.49-.161-.882-.161h-2.159zm0-2.072h2.982c.832 0 1.562-.098 2.189-.293.636-.206 1.165-.49 1.586-.852.431-.373.755-.813.97-1.323a4.3 4.3 0 00.323-1.69c0-1.253-.416-2.198-1.248-2.834-.823-.637-2.052-.955-3.688-.955h-3.114v7.947zm24.478 8.785c.568 0 1.087-.024 1.557-.073.48-.059.93-.142 1.352-.25a9.944 9.944 0 001.189-.382 14.24 14.24 0 001.117-.529v-4.642h-3.261a.65.65 0 01-.456-.161.541.541 0 01-.161-.397v-1.616h6.464v8.08c-.529.382-1.083.715-1.661.999-.568.284-1.18.524-1.836.72-.646.186-1.342.323-2.086.41-.744.099-1.552.148-2.424.148-1.528 0-2.928-.26-4.201-.779a9.816 9.816 0 01-3.291-2.203c-.921-.95-1.641-2.086-2.16-3.409-.509-1.322-.764-2.776-.764-4.363 0-1.606.25-3.07.75-4.392.509-1.322 1.229-2.454 2.159-3.394.94-.95 2.072-1.684 3.394-2.203 1.332-.52 2.82-.779 4.466-.779.832 0 1.606.064 2.321.191a9.944 9.944 0 011.983.529 8.614 8.614 0 011.704.837c.519.323 1.004.69 1.455 1.102l-.808 1.293c-.167.264-.382.396-.647.396a1.04 1.04 0 01-.514-.161 15.66 15.66 0 01-.823-.5 6.532 6.532 0 00-1.116-.558 8.265 8.265 0 00-1.543-.47c-.587-.127-1.288-.19-2.1-.19-1.185 0-2.258.195-3.218.587a6.69 6.69 0 00-2.453 1.66c-.676.715-1.195 1.586-1.557 2.615-.363 1.018-.544 2.164-.544 3.437 0 1.332.186 2.522.558 3.57.382 1.038.916 1.92 1.602 2.644a6.873 6.873 0 002.438 1.66c.941.382 1.979.573 3.115.573zm25.161-18.98V12.3h-10.107v6.993h8.183v2.233h-8.183v7.184h10.107v2.32h-12.972V9.98h12.972zm7.23 12.267v8.785h-2.836V9.979h5.95c1.332 0 2.483.137 3.452.411.97.265 1.768.652 2.395 1.161a4.638 4.638 0 011.41 1.851c.304.715.456 1.518.456 2.41a6.06 6.06 0 01-.353 2.085 5.533 5.533 0 01-1.028 1.748 6.04 6.04 0 01-1.631 1.308 7.962 7.962 0 01-2.174.823c.352.205.666.504.94.896l6.141 8.359h-2.527c-.519 0-.901-.201-1.146-.603l-5.465-7.521c-.166-.235-.348-.402-.543-.5-.196-.107-.49-.161-.882-.161h-2.159zm0-2.072h2.982c.832 0 1.562-.098 2.189-.293.636-.206 1.165-.49 1.586-.852a3.57 3.57 0 00.97-1.323 4.3 4.3 0 00.323-1.69c0-1.253-.416-2.198-1.249-2.834-.822-.637-2.051-.955-3.687-.955h-3.114v7.947z" fill="#1D0605" fill-opacity=".9"/><g clip-path="url(#clip0_1050_1150)" fill="#1D0605" fill-opacity=".9"><path d="M26.028 25.812v2.212c-.07.284-.118.576-.212.851-.592 1.719-2.087 2.772-3.926 2.776H7.516c-.111 0-.221 0-.332-.009-1.815-.091-3.423-1.47-3.711-3.26-.119-.743-.077-1.512-.093-2.27-.012-.615.308-.923.92-.923h11.08c.266-.004.525.084.735.248a333.12 333.12 0 002.334 1.753c.098.077.198.145.3.219l2.63-1.98c.21-.165.47-.252.736-.247.966.007 1.932.017 2.897 0 .496-.014.839.158 1.016.63zm3.464-20.435c-.23.88-.461 1.758-.685 2.64-.83 3.31-1.656 6.62-2.478 9.93-.048.194-.124.256-.326.256-7.518-.005-15.037-.007-22.555-.005-.067 0-.134-.006-.231-.012-.154-.6-.308-1.2-.457-1.803C1.86 12.784.961 9.185.066 5.585a1.463 1.463 0 01-.057-.565c.104-.646.85-.923 1.385-.513.847.658 1.684 1.337 2.524 2.008l3.597 2.88c.511.408.587.658.38 1.271a1.74 1.74 0 002.124 2.252c.405-.118.753-.38.98-.735a1.732 1.732 0 00-.371-2.284c-.506-.42-.576-.745-.284-1.33 1.18-2.367 2.362-4.734 3.545-7.103.18-.363.426-.625.847-.626.421 0 .672.257.853.622a5219.12 5219.12 0 003.545 7.102c.293.587.222.924-.276 1.332a1.728 1.728 0 00-.374 2.284 1.735 1.735 0 002.199.647 1.737 1.737 0 00.918-2.124c-.216-.67-.154-.881.385-1.317 1.979-1.584 3.957-3.168 5.936-4.75.66-.527 1.185-.412 1.57.339v.402zM3.457 19.953h22.571v2.425c0 .688-.34 1.026-1.027 1.026H4.523c-.743 0-1.064-.325-1.064-1.078v-2.073l-.003-.3z"/></g><defs><clipPath id="clip0_1050_1150"><path fill="#fff" transform="translate(0 .844)" d="M0 0h29.492v30.809H0z"/></clipPath></defs></svg>