<svg width="266" height="37" fill="none" xmlns="http://www.w3.org/2000/svg"><path d="M49.767 10.44v3.823h-8.792v4.998h6.734v3.675h-6.734v5.102h8.792v3.822h-13.79V10.44h13.79zm13.788 11.63c.196.372.382.759.559 1.16.186.402.362.814.529 1.235.166-.43.343-.847.53-1.25.185-.41.376-.808.573-1.19l5.498-10.82c.098-.187.196-.329.294-.427a1.02 1.02 0 01.353-.235c.127-.049.27-.078.426-.088a9.88 9.88 0 01.573-.015h3.793v21.42h-4.38V19.54c0-.597.029-1.244.088-1.94l-5.675 11.01a1.854 1.854 0 01-.72.78 1.933 1.933 0 01-1.015.264h-.676c-.383 0-.726-.088-1.03-.265a1.887 1.887 0 01-.705-.779l-5.704-11.026a18.213 18.213 0 01.117 1.955v12.32h-4.38V10.44h3.792c.216 0 .402.005.559.015.166.01.314.039.441.088.127.05.24.128.338.235.108.098.21.24.309.427l5.513 10.864zm21.64 2.63v7.16h-4.97V10.44h7.557c1.51 0 2.803.181 3.881.544 1.088.353 1.98.843 2.676 1.47a5.725 5.725 0 011.558 2.22c.333.853.5 1.774.5 2.764 0 1.068-.172 2.049-.515 2.94a5.9 5.9 0 01-1.573 2.294c-.705.637-1.602 1.137-2.69 1.5-1.078.352-2.357.529-3.837.529h-2.588zm0-3.748h2.587c1.294 0 2.225-.309 2.793-.926.569-.618.853-1.48.853-2.588 0-.49-.074-.936-.22-1.338a2.62 2.62 0 00-.677-1.029 2.873 2.873 0 00-1.132-.676c-.45-.157-.99-.235-1.617-.235h-2.588v6.792zm19.22 10.908h-4.999V10.44h4.999v21.42zm8.948-7.924v7.924h-4.969V10.44h6.968c1.549 0 2.867.162 3.955.485 1.098.314 1.99.755 2.676 1.323.695.569 1.2 1.24 1.514 2.015.313.774.47 1.617.47 2.528 0 .696-.093 1.353-.279 1.97a5.966 5.966 0 01-.838 1.72 6.29 6.29 0 01-1.353 1.397 7.044 7.044 0 01-1.837 1.014c.333.167.642.373.926.618.294.245.549.544.764.897l4.558 7.453h-4.499c-.833 0-1.431-.313-1.793-.94l-3.558-6.22c-.157-.274-.343-.47-.559-.587-.206-.118-.5-.177-.882-.177h-1.264zm0-3.425h1.999c.676 0 1.25-.084 1.72-.25.481-.177.873-.417 1.176-.72a2.72 2.72 0 00.662-1.06c.137-.41.206-.852.206-1.322 0-.941-.309-1.676-.926-2.205-.608-.53-1.554-.794-2.838-.794h-1.999v6.35zm28.375-10.07v3.822h-8.792v4.998h6.734v3.675h-6.734v5.102h8.792v3.822h-13.79V10.44h13.79zm9.315 21.42V10.792h6.718c1.294 0 2.406.127 3.337.382.941.255 1.711.618 2.309 1.088a4.2 4.2 0 011.337 1.735c.294.676.441 1.44.441 2.293 0 .52-.083 1.02-.249 1.5-.157.48-.402.926-.736 1.338a5.018 5.018 0 01-1.234 1.102 6.772 6.772 0 01-1.735.794c1.539.304 2.7.858 3.484 1.662.784.803 1.176 1.862 1.176 3.175 0 .892-.166 1.706-.5 2.44a5.117 5.117 0 01-1.44 1.897c-.628.53-1.402.941-2.323 1.235-.912.284-1.956.426-3.132.426h-7.453zm2.852-9.6v7.335h4.557c.814 0 1.51-.093 2.088-.279.588-.186 1.068-.446 1.441-.78.382-.342.661-.744.838-1.205a4.37 4.37 0 00.264-1.543c0-1.088-.387-1.946-1.161-2.573-.765-.637-1.926-.956-3.485-.956h-4.542zm0-2.03h3.763c.804 0 1.5-.088 2.088-.264.588-.177 1.073-.422 1.455-.735a2.86 2.86 0 00.868-1.132c.186-.451.279-.941.279-1.47 0-1.235-.372-2.142-1.117-2.72-.745-.579-1.902-.868-3.47-.868h-3.866v7.19zm24.374 9.365c.872 0 1.651-.147 2.337-.44a4.83 4.83 0 001.735-1.236 5.255 5.255 0 001.088-1.896c.255-.735.382-1.544.382-2.426V10.793h2.838v12.805c0 1.215-.196 2.343-.588 3.381a7.789 7.789 0 01-1.662 2.706c-.715.754-1.592 1.347-2.631 1.778-1.039.432-2.206.647-3.499.647-1.294 0-2.46-.215-3.499-.647a7.711 7.711 0 01-2.647-1.779 7.97 7.97 0 01-1.675-2.705c-.383-1.038-.574-2.166-.574-3.38V10.792h2.838v12.79c0 .883.122 1.691.367 2.426a5.566 5.566 0 001.088 1.897c.48.529 1.063.945 1.749 1.25.696.293 1.48.44 2.353.44zm16.42-6.527v8.791h-2.837V10.793h5.954c1.333 0 2.485.137 3.455.412.97.264 1.769.651 2.396 1.161a4.637 4.637 0 011.412 1.853c.304.715.456 1.519.456 2.41a6.07 6.07 0 01-.353 2.088 5.56 5.56 0 01-1.029 1.75 6.03 6.03 0 01-1.632 1.308 7.976 7.976 0 01-2.176.823c.353.206.666.505.941.897l6.145 8.365h-2.529c-.519 0-.901-.2-1.146-.602l-5.469-7.528c-.167-.235-.348-.402-.544-.5-.196-.107-.49-.161-.882-.161h-2.162zm0-2.073h2.985c.833 0 1.563-.098 2.19-.294.638-.206 1.167-.49 1.588-.853.431-.372.755-.813.971-1.323.215-.51.323-1.073.323-1.69 0-1.255-.417-2.201-1.25-2.838-.823-.637-2.053-.956-3.69-.956h-3.117v7.954zm24.497 8.791c.568 0 1.088-.024 1.558-.073.48-.059.931-.142 1.353-.25.421-.108.818-.235 1.191-.382.372-.157.744-.334 1.117-.53v-4.645h-3.264a.65.65 0 01-.456-.162.542.542 0 01-.161-.397v-1.617h6.468v8.086a11.48 11.48 0 01-1.661 1c-.568.284-1.181.524-1.838.72-.647.186-1.342.323-2.087.412-.745.098-1.554.147-2.426.147-1.529 0-2.931-.26-4.205-.78a9.824 9.824 0 01-3.293-2.205c-.921-.95-1.642-2.088-2.161-3.41-.51-1.324-.764-2.78-.764-4.367 0-1.607.249-3.073.749-4.396.51-1.323 1.23-2.455 2.161-3.396.941-.95 2.073-1.686 3.397-2.205 1.332-.52 2.822-.78 4.469-.78.833 0 1.607.064 2.323.192a9.954 9.954 0 011.984.53 8.633 8.633 0 011.706.837c.519.324 1.004.691 1.455 1.103l-.808 1.293c-.167.265-.383.397-.647.397-.157 0-.329-.054-.515-.161a15.682 15.682 0 01-.823-.5 6.574 6.574 0 00-1.117-.559 8.291 8.291 0 00-1.544-.47c-.588-.128-1.289-.191-2.102-.191-1.186 0-2.26.196-3.22.588a6.681 6.681 0 00-2.455 1.661c-.676.715-1.196 1.588-1.559 2.617-.362 1.02-.544 2.166-.544 3.44 0 1.333.187 2.524.559 3.573.382 1.038.917 1.92 1.603 2.646a6.881 6.881 0 002.44 1.661c.941.382 1.98.573 3.117.573zm25.18-18.994v2.323h-10.115v6.998h8.189v2.234h-8.189v7.19h10.115v2.322h-12.982V10.793h12.982zm7.235 12.276v8.791h-2.838V10.793h5.954c1.333 0 2.485.137 3.455.412.971.264 1.769.651 2.397 1.161a4.644 4.644 0 011.411 1.853c.304.715.456 1.519.456 2.41a6.07 6.07 0 01-.353 2.088 5.522 5.522 0 01-1.029 1.75 6.03 6.03 0 01-1.632 1.308 7.964 7.964 0 01-2.176.823c.353.206.667.505.941.897l6.145 8.365h-2.528c-.52 0-.902-.2-1.147-.602l-5.469-7.528c-.167-.235-.348-.402-.544-.5-.196-.107-.49-.161-.882-.161h-2.161zm0-2.073h2.984c.833 0 1.563-.098 2.191-.294.637-.206 1.166-.49 1.587-.853.432-.372.755-.813.971-1.323.215-.51.323-1.073.323-1.69 0-1.255-.416-2.201-1.249-2.838-.824-.637-2.054-.956-3.691-.956h-3.116v7.954z" fill="#F59A1B"/><g clip-path="url(#clip0_1050_1310)" fill="#F43127"><path d="M26.545 25.659v2.213c-.07.284-.117.576-.212.852-.593 1.72-2.089 2.773-3.93 2.777H8.02c-.11 0-.22 0-.332-.008-1.816-.092-3.426-1.471-3.714-3.263-.118-.743-.077-1.513-.092-2.271-.013-.616.308-.924.92-.924H15.89a1.17 1.17 0 01.736.248 333.61 333.61 0 002.335 1.754c.099.077.199.145.3.22.891-.672 1.762-1.326 2.632-1.983.21-.164.47-.251.738-.246.966.007 1.933.017 2.899 0 .496-.014.84.158 1.016.63zm3.467-20.451c-.23.88-.462 1.76-.685 2.641-.83 3.313-1.658 6.626-2.481 9.939-.048.194-.123.256-.326.256-7.523-.006-15.047-.007-22.572-.005-.066 0-.133-.007-.231-.012-.154-.6-.308-1.202-.457-1.805-.901-3.601-1.8-7.203-2.696-10.805a1.464 1.464 0 01-.057-.566c.104-.647.85-.924 1.386-.514.848.659 1.685 1.338 2.526 2.01l3.6 2.881c.511.41.587.66.38 1.273a1.742 1.742 0 002.125 2.253c.405-.118.754-.379.98-.735a1.733 1.733 0 00-.37-2.285c-.507-.42-.577-.746-.285-1.331 1.181-2.369 2.364-4.738 3.548-7.109.18-.363.426-.625.848-.626.421 0 .672.257.853.622 1.182 2.37 2.364 4.74 3.548 7.107.293.588.223.925-.277 1.334a1.73 1.73 0 00-.373 2.286 1.735 1.735 0 002.2.647 1.738 1.738 0 00.92-2.126c-.217-.67-.155-.882.384-1.318 1.98-1.585 3.96-3.17 5.94-4.753.661-.528 1.186-.412 1.572.339v.402zM3.957 19.794h22.588v2.427c0 .688-.34 1.027-1.028 1.027H5.025c-.744 0-1.064-.326-1.065-1.079v-2.075l-.003-.3z"/></g><defs><clipPath id="clip0_1050_1310"><path fill="#fff" transform="translate(.498 .67)" d="M0 0h29.514v30.832H0z"/></clipPath></defs></svg>